<?xml version="1.0" encoding="utf-8"?>
<svg id="master-artboard" viewBox="0 0 1400 980" version="1.1" xmlns="http://www.w3.org/2000/svg" x="0px" y="0px" style="enable-background:new 0 0 336 235.2;" width="1400px" height="980px"><g transform="matrix(6.476769247090534, 0, 0, 6.476769247090534, 185.25877397024544, -1.4210854715202004e-14)"><g id="Layer_7" data-name="Layer 7">
    <path d="M64.71,53.34s.35,4.43-1.63,6.42c-.8.81-1.77,1.17-1.77,1.17-.54.2-1.02.27-1.35.29-6.78.57-15.33,3.07-16.77,7-.13.35-1.03,2.79.16,4.27.98,1.23,2.94,1.14,3.04,1.13,3.08-.22,4.15-4.03,6.66-6.39,2.08-1.96,11.06-5.2,14.56-.06-.67.14-2.13.54-3.42,1.81-2.01,1.97-2.06,5.05-2.06,5.05v27.62c-.14,4.17.29,13.31-5.59,22.2-7.06,10.68-22.57,19.71-34.51,13.9-6.14-2.99-12.39-10.42-11.6-19.64.7-8.14,6.7-15.33,14.88-17.34,7.02-1.72,14.52.63,19.52,6.11-.78-2.28-2.88-7.34-7.95-10.58-10.61-6.78-23.57,1.15-24.36,1.65C2.57,104.16-1.55,116.45.52,126.8c2.9,14.45,16.96,20.51,19.66,21.67,20.63,8.88,44.03-4.81,52.48-16.25,3.29-4.45,5.35-9.56,5.35-9.56,1.93-4.86,3.95-10.55,4.13-18.56.32-14.1-.32-12.45,0-26.55.27-1.76,1.85-3.04,3.62-2.93,1.79.11,3.21,1.6,3.24,3.4-.03,10.14-.07,20.29-.1,30.43.32,2.99,2.82,5.29,5.77,5.36,2.85.07,5.39-1.96,5.97-4.8,0-10.38,0-20.76,0-31.15.17-1.79,1.74-3.12,3.5-3.01,1.7.11,3.06,1.55,3.07,3.29.07,9.62.19,2.22-.03,20.55-.02,1.48,0,2.67,0,3.37.59,2.57,1.72,3.8,2.57,4.44,4.18,3.14,13.09.46,21.65-7.49-.58.24-2.59,1-4.54.14-.35-.16-.98-.44-1.51-1.11-.81-1.03-.77-2.21-.75-2.59.03-8.03.06-11.55.09-19.58-.04-1.32-.31-3.47-1.68-5.51-2.36-3.53-7-5.26-11.91-4.61-.09-.82-.13-2.15.5-3.49,1.75-3.76,6.53-2.94,16.07-7.17,0,0,6.76-3.59,9.76-8.09,0,0,2.63-3.59,2.16-6.74-.05-.37-.44-2.94-2.19-3.67-1.06-.44-2.35-.1-3.21.46-2.51,1.65-1.3,5-2.78,8.8-2.36,6.07-9.85,8.46-11.66,9.01-1.94.6-9.98,3.08-15.25-1.21-5.4-4.39-6.27-14.55-2.34-20.78,5.94-9.42,19.72-3.98,37.06-12.93,9.47-4.89,15.77-11.86,19.73-17.27-4.45,4.17-11.11,9.29-20.19,12.88-23.3,9.22-44.87,1.43-51.02-1.04v40.45c.13,1.75-1.27,3.18-2.82,3.14-1.38-.03-2.61-1.22-2.68-2.77,0,0-.26-27.91-.04-46.24.02-1.48,0-2.67,0-3.37-.59-2.57-1.72-3.8-2.57-4.44-4.18-3.14-13.09-.46-21.65,7.49.58-.24,2.59-1,4.54-.14.35.16.98.44,1.51,1.11.81,1.03.77,2.21.75,2.59-.03,8.03-.06,41.02-.06,41.02Z" style="fill: rgb(255, 199, 69);"/>
  </g></g></svg>